<svg width="67" height="68" xmlns="http://www.w3.org/2000/svg" overflow="hidden"><defs><clipPath id="a"><path d="M427 205h67v68h-67z"/></clipPath></defs><g clip-path="url(#a)" transform="translate(-427 -205)" fill="#FE5000"><path d="M452.53 215.317a2.437 2.437 0 013.463-.322l13.118 11.07a2.523 2.523 0 01.32 3.518 2.436 2.436 0 01-3.466.324l-13.115-11.072a2.523 2.523 0 01-.32-3.517zM451.598 247.452l-13.118-11.07a2.436 2.436 0 00-3.466.322 2.523 2.523 0 00.318 3.518l13.119 11.07a2.436 2.436 0 003.461-.366 2.524 2.524 0 00-.314-3.474zM482.413 262.381c-.891 0-1.754-.318-2.437-.899l-.024-.02-22.404-20.435-4.263 5.215a.844.844 0 01-1.201.112l-12.622-10.649a.874.874 0 01-.11-1.218l11.833-14.455a.844.844 0 011.2-.113l12.622 10.647c.363.305.412.85.111 1.218l-4.165 5.092 23.891 18.611.026.021c1.627 1.37 1.853 3.818.503 5.47a3.81 3.81 0 01-2.601 1.39 5.86 5.86 0 01-.36.013zm-1.34-2.225c.9.76 2.239.636 2.988-.28a2.176 2.176 0 00-.274-3.033l-24.58-19.142a.874.874 0 01-.137-1.237l4.187-5.117-11.306-9.541-10.743 13.122 11.306 9.542 4.289-5.241a.845.845 0 011.226-.092z"/></g></svg>