<svg width="67" height="68" xmlns="http://www.w3.org/2000/svg" overflow="hidden"><defs><clipPath id="a"><path d="M906 205h67v68h-67z"/></clipPath></defs><g clip-path="url(#a)" transform="translate(-906 -205)"><path d="M41.151 15.438a7.895 7.895 0 11-.707 5.54m1.403.837a3.337 3.337 0 100 4.72 3.339 3.339 0 00-.005-4.72zm5.646 11.744c.474-.474.86-1.41.86-2.08l-.02-14.813a1.227 1.227 0 00-1.217-1.218L32.3 15.43c-.67 0-1.605.386-2.08.86L8.55 37.953a1.225 1.225 0 000 1.723l15.55 15.55a1.218 1.218 0 001.723 0z" stroke="#FE5000" stroke-width="1.705" stroke-linecap="round" stroke-linejoin="round" fill="none" transform="matrix(1 0 0 1.01493 906 205)"/><path d="M929.615 234.432c-.018-.272.15-.371.373-.22l3.787 2.563c.258.153.568.186.852.091l4.231-1.712c.244-.1.394.032.32.293l-1.235 4.45c-.064.299.001.611.18.856l2.917 3.564c.172.209.092.388-.176.399l-4.55.183c-.3.03-.572.189-.747.438l-2.437 3.908c-.142.23-.335.21-.429-.046l-1.577-4.336a1.047 1.047 0 00-.641-.586l-4.413-1.139c-.26-.066-.301-.26-.09-.427l3.575-2.864a1.06 1.06 0 00.35-.8z" fill="#FE5000"/></g></svg>