<svg width="68" height="68" xmlns="http://www.w3.org/2000/svg" overflow="hidden"><defs><clipPath id="a"><path d="M546 205h68v68h-68z"/></clipPath></defs><g clip-path="url(#a)" transform="translate(-546 -205)" fill="#FE5000"><path d="M581.121 245.754a3.158 3.158 0 11-6.317.003 3.158 3.158 0 013.157-3.16h.003a3.156 3.156 0 013.157 3.157zm4.856-21.59a3.157 3.157 0 10-.001 6.315 3.157 3.157 0 00.001-6.315zm13.738-8.284a3.158 3.158 0 103.158 3.158v-.005a3.156 3.156 0 00-3.158-3.153z"/><path d="M601.89 262.985h-44.763a.865.865 0 01-.865-.865v-45.33a.865.865 0 111.731 0v44.465h43.897a.865.865 0 110 1.73zm-38.366-5.019a.866.866 0 01-.535-1.547l14.268-11.21 7.926-18.231a.867.867 0 01.347-.396l13.738-8.291a.866.866 0 11.895 1.484l-13.503 8.147-7.896 18.177a.875.875 0 01-.26.336l-14.446 11.345a.862.862 0 01-.534.186z"/></g></svg>