<svg width="67" height="68" xmlns="http://www.w3.org/2000/svg" overflow="hidden"><defs><clipPath id="a"><path d="M786 359h67v68h-67z"/></clipPath></defs><g clip-path="url(#a)" transform="translate(-786 -359)" fill="#FE5000"><path d="M818.282 410.892c0 2.454-1.96 4.444-4.38 4.444-2.418 0-4.379-1.99-4.379-4.444 0-2.453 1.957-4.442 4.373-4.445 2.42 0 4.382 1.989 4.386 4.445zm11.558-4.445c-2.422-.004-4.389 1.985-4.393 4.443-.004 2.459 1.956 4.455 4.378 4.459 2.422.004 4.39-1.986 4.393-4.444v-.013c-.003-2.454-1.963-4.442-4.38-4.445zM834.2 403.536h-22.253c-1.734 0-3.439-1.334-3.88-3.036l-1.18-4.555-5.875-22.669c-.244-.93-1.283-1.747-2.23-1.747h-5.473a.86.86 0 01-.853-.865.86.86 0 01.853-.866h5.472c1.735 0 3.44 1.334 3.88 3.037l1.256 4.847H839.6a.86.86 0 01.853.865c0 .1-.017.198-.05.292l-6.077 17.174a.854.854 0 01-.802.574h-24.708l.9 3.473c.243.93 1.283 1.746 2.231 1.746H834.2a.86.86 0 01.853.865.86.86 0 01-.853.865zm-25.833-8.681h24.557l5.464-15.443h-34.023z"/></g></svg>