<svg width="118" height="24" viewBox="0 0 118 24" fill="none" xmlns="http://www.w3.org/2000/svg">
<g clip-path="url(#clip0_32_773)">
<path d="M43.1977 21.4461L39.1841 15.4935C39.0354 15.2734 38.9809 15.003 39.0326 14.7425C39.0843 14.482 39.238 14.2529 39.4595 14.1063C41.2978 12.8748 42.4509 10.6716 42.4509 8.13021C42.4509 3.77854 38.8102 0.335938 34.3242 0.335938H24.6804C24.5053 0.335938 24.3374 0.405564 24.2137 0.52947C24.09 0.653376 24.0207 0.821388 24.021 0.996469V5.21491C24.0201 5.38871 24.1554 5.53282 24.3289 5.54294C27.5924 5.71871 30.2132 8.53212 30.2132 11.7419C30.2132 14.9818 27.5644 17.7348 24.3289 17.9094C24.1554 17.9195 24.0201 18.0637 24.021 18.2375V22.3294C24.021 22.6936 24.3162 22.9888 24.6804 22.9888H30.2837C30.6479 22.9888 30.9431 22.6936 30.9431 22.3294V20.3579C30.9431 18.9528 32.1567 18.6125 33.0848 19.7141L35.4359 22.6574C35.6471 22.8711 35.9347 22.992 36.2352 22.9933H42.3748C42.7426 22.9952 43.0811 22.793 43.2538 22.4683C43.4265 22.1436 43.4049 21.7499 43.1977 21.4461Z" fill="#FE5000"/>
<path d="M46.2719 0.324707H51.1284C51.4928 0.325325 51.7879 0.620874 51.7879 0.985238V22.3215C51.7879 22.6857 51.4926 22.9809 51.1284 22.9809H46.2719C45.9075 22.9809 45.6119 22.6859 45.6113 22.3215V0.985238C45.6113 0.620437 45.9071 0.324707 46.2719 0.324707Z" fill="#FE5000"/>
<path d="M59.6717 5.91571H54.5543C54.1923 5.91573 53.898 5.62389 53.8949 5.2619V0.985238C53.8949 0.620874 54.1899 0.325325 54.5543 0.324707H71.5031C71.8675 0.325325 72.1625 0.620874 72.1625 0.985238V5.2619C72.1625 5.62608 71.8673 5.92131 71.5031 5.92131H66.511C66.3303 5.9249 66.1849 6.07086 66.1819 6.25158V22.3215C66.1819 22.6857 65.8867 22.9809 65.5225 22.9809H60.6659C60.3015 22.9809 60.006 22.6859 60.0054 22.3215V6.24598C60.0023 6.06354 59.8542 5.9169 59.6717 5.91571Z" fill="#FE5000"/>
<path d="M75.0229 0.324707H90.4111C90.7754 0.325325 91.0705 0.620874 91.0705 0.985238V5.22383C91.0705 5.39872 91.001 5.56645 90.8773 5.69011C90.7537 5.81377 90.586 5.88325 90.4111 5.88325H80.8692C80.6837 5.88325 80.5333 6.03362 80.5333 6.21911V8.68211C80.5333 8.77058 80.5689 8.85533 80.6321 8.91726C80.6953 8.97918 80.7807 9.01306 80.8692 9.01125H89.7282C90.0925 9.01187 90.3876 9.30742 90.3876 9.67178V13.4234C90.3876 13.7876 90.0923 14.0828 89.7282 14.0828H80.8692C80.6863 14.0828 80.537 14.2291 80.5333 14.4119V17.1985C80.537 17.3813 80.6863 17.5277 80.8692 17.5276H90.6708C91.0352 17.5282 91.3302 17.8238 91.3302 18.1882V22.3305C91.3302 22.6947 91.035 22.9899 90.6708 22.9899H75.0229C74.6588 22.9899 74.3635 22.6947 74.3635 22.3305V0.985238C74.3632 0.810158 74.4326 0.642146 74.5563 0.51824C74.68 0.394334 74.8479 0.324707 75.0229 0.324707Z" fill="#FE5000"/>
<path d="M105.427 0C98.5042 0 92.9457 5.26186 92.9457 11.7339C92.9457 18.206 98.5042 23.4365 105.427 23.4365C112.383 23.4365 117.942 18.2027 117.942 11.7339C117.942 5.26522 112.383 0 105.427 0ZM105.427 17.9127C103.788 17.9175 102.214 17.2682 101.055 16.1089C99.896 14.9495 99.247 13.3757 99.252 11.7362C99.252 8.38875 102.015 5.52831 105.427 5.52831C108.84 5.52831 111.636 8.42121 111.636 11.7362C111.642 15.0825 108.82 17.9127 105.433 17.9127H105.427Z" fill="#FE5000"/>
<path d="M12.3519 0C15.8763 0 19.0311 1.50467 21.2859 3.90385C21.4083 4.03666 21.4709 4.21376 21.4593 4.39396C21.4476 4.57415 21.3627 4.74173 21.2243 4.8577L18.0247 7.53901C17.7639 7.75431 17.3826 7.73788 17.1413 7.50095C15.8629 6.24625 14.1465 5.53803 12.3553 5.52607C8.9418 5.52607 6.17877 8.12677 6.17877 11.669C6.17877 15.2113 8.9418 17.7806 12.3553 17.7806C14.1464 17.7682 15.8626 17.06 17.1413 15.8057C17.3823 15.5685 17.7636 15.5516 18.0247 15.7665L21.2266 18.4479C21.3654 18.5635 21.4507 18.731 21.4626 18.9113C21.4744 19.0916 21.4118 19.2689 21.2893 19.4017C19.0345 21.8009 15.8796 23.3056 12.3553 23.3056C5.52607 23.3056 0 18.3975 0 11.669C0 4.94055 5.52607 0 12.3519 0Z" fill="#FE5000"/>
</g>
<defs>
<clipPath id="clip0_32_773">
<rect width="118" height="24" fill="white"/>
</clipPath>
</defs>
</svg>
