<svg width="67" height="68" xmlns="http://www.w3.org/2000/svg" overflow="hidden"><defs><clipPath id="a"><path d="M906 359h67v68h-67z"/></clipPath></defs><g clip-path="url(#a)" transform="translate(-906 -359)" fill="#FE5000"><path d="M960.383 388.38c-3.132 0-4.674-2.35-5.251-3.531-.548 1.185-2.044 3.53-5.276 3.53-3.204 0-4.704-2.314-5.262-3.506-.558 1.192-2.057 3.507-5.265 3.507-3.235 0-4.73-2.35-5.278-3.539-.581 1.181-2.136 3.539-5.251 3.539-3.162 0-4.709-2.415-5.27-3.586-.584 1.164-2.17 3.586-5.252 3.586a5.586 5.586 0 01-4.605-2.448 3.787 3.787 0 01-.307-3.688l4.043-8.83a2.625 2.625 0 012.374-1.536h39.103a2.625 2.625 0 012.374 1.536l4.038 8.83a3.782 3.782 0 01-.306 3.69 5.58 5.58 0 01-4.609 2.446zm-5.251-5.54h.012a1.508 1.508 0 011.398.947c.353.865 1.433 2.862 3.852 2.862a3.88 3.88 0 003.198-1.703 2.03 2.03 0 00.162-1.978l-4.04-8.83a.907.907 0 00-.822-.533h-39.105a.907.907 0 00-.821.533l-4.044 8.83a2.028 2.028 0 00.161 1.978 3.874 3.874 0 003.199 1.703c2.34 0 3.474-2.024 3.851-2.894a1.514 1.514 0 011.386-.914h.04c.611-.001 1.162.37 1.398.94.356.865 1.445 2.868 3.85 2.868 2.406 0 3.488-2.01 3.854-2.872a1.512 1.512 0 011.395-.936h.017a1.505 1.505 0 011.413.981c.404 1.056 1.441 2.827 3.85 2.827 2.41 0 3.448-1.77 3.852-2.828a1.509 1.509 0 012.825 0c.404 1.057 1.442 2.829 3.85 2.829 2.409 0 3.45-1.77 3.852-2.826a1.505 1.505 0 011.417-.983zM918.91 404.084h3.653v-3.657c0-.318.255-.576.57-.576h2.272c.314 0 .57.258.57.576v3.657h3.023v-1.263c0-.319.255-.577.569-.577h2.572c.314 0 .569.258.569.577v1.263h3.51v-2.985c0-.318.256-.576.57-.576h2.565c.314 0 .569.258.569.576v2.985h3.589v-7.058H918.91z"/><path d="M943.52 395.92v-7.633c-1.186.911-5.453 3.11-9.45-1.024-1.11 1.69-6.177 4.663-10.527 0a6.952 6.952 0 01-4.633 2.426v6.231h3.653v-2.114c0-.318.255-.576.57-.576h2.272c.314 0 .57.258.57.576v2.114h3.023v-3.654c0-.319.255-.576.569-.576h2.572c.314 0 .569.257.569.576v3.654h3.51v-1.262c0-.318.254-.575.568-.576H939.353c.313 0 .568.256.569.574v1.264z"/><path d="M964.386 410.433h-4.43v-20.725a6.949 6.949 0 01-4.831-2.443c-1.344 1.772-6.203 4.54-10.513.016v22.603a.549.549 0 01-.57.526.55.55 0 01-.52-.526v-4.698h-24.613v5.247h-4.295c-.42 0-.76.346-.76.771v1.285c.002.424.341.768.76.769h49.772c.42 0 .76-.345.76-.77v-1.281a.764.764 0 00-.755-.774h-.005zm-7.884-10.633l-7.706 1.471a.346.346 0 01-.403-.28l-.755-4.08a.347.347 0 01.274-.405h.002l1.984-.372 1.082-3.044a.374.374 0 01.625-.132l2.26 2.425 1.755-.342a.347.347 0 01.404.279l.754 4.08a.348.348 0 01-.276.4z"/><path d="M951.142 395.898l1.447-.274-.977-1.049-.47 1.323z"/></g></svg>