<svg width="67" height="68" xmlns="http://www.w3.org/2000/svg" overflow="hidden"><defs><clipPath id="a"><path d="M906 45h67v68h-67z"/></clipPath></defs><g clip-path="url(#a)" transform="translate(-906 -45)" fill="#FE5000"><path d="M928.668 76.332h21.734c-1.353 1.29-2.23 2.988-2.786 4.283h-2.548l-.877 9.856c0 1.051-.795 2.02-1.827 2.102-.955.08-1.99.162-2.946.162-.955 0-1.912-.08-2.866-.162-1.037-.163-1.827-1.05-1.827-2.102l-.955-9.856h-2.388c-.565-1.295-1.362-2.99-2.714-4.283zm10.832-1.134c2.77 0 5.015-2.279 5.015-5.09s-2.245-5.09-5.015-5.09c-2.77 0-5.015 2.279-5.015 5.09v.003c.001 2.81 2.246 5.087 5.015 5.087z"/><path d="M921.35 93.68c-1.032 0-2.09-.092-2.94-.165l-.06-.007c-1.45-.23-2.546-1.495-2.558-2.945l-.019-.742a3.094 3.094 0 01-1.547 1.903 2.912 2.912 0 01-2.28.175.817.817 0 01-.244-.062c-1.374-.58-2.105-1.985-1.778-3.418.567-2.535 1.06-4.313 1.462-5.283.044-.124.095-.246.152-.365a2.16 2.16 0 00.136-.349.702.702 0 01.027-.086l.026-.07c.795-2.18 2.45-6.717 6.745-6.717h.475c-2.961-1.339-4.292-4.86-2.972-7.865 1.319-3.005 4.789-4.356 7.75-3.017 2.96 1.34 4.291 4.86 2.972 7.866a5.915 5.915 0 01-2.972 3.016h.478c4.264 0 5.945 4.526 6.755 6.744.128.27.238.55.328.835.609 1.457 1.231 4.17 1.476 5.285.33 1.38-.431 2.843-1.777 3.418a.794.794 0 01-.244.063 2.917 2.917 0 01-2.289-.178 3.081 3.081 0 01-1.538-1.899l-.02.742c-.006 1.516-1.178 2.844-2.618 2.952-.886.084-1.943.169-2.927.169zm-2.763-1.887c1.026.088 1.884.156 2.762.156.917 0 1.926-.08 2.792-.159.576-.045 1.054-.618 1.054-1.236v-.021l.158-6.382a.858.858 0 01.874-.844c.382.01.71.275.805.651.045.16.1.315.164.467.045.113.09.228.122.342.45 1.16 1.045 3.75 1.218 4.538.095.38.346.7.689.878.32.171.697.191 1.033.055a.815.815 0 01.186-.052c.498-.272.785-.847.66-1.36v-.02c-.488-2.226-1.01-4.104-1.396-5.019a.535.535 0 01-.023-.061l-.014-.042a4.557 4.557 0 00-.259-.657 1.08 1.08 0 01-.036-.087c-.723-1.978-2.065-5.656-5.171-5.656h-5.726c-3.108 0-4.385 3.497-5.146 5.586l-.012.032a3.67 3.67 0 01-.23.602 2.105 2.105 0 00-.117.286c-.365.854-.842 2.59-1.385 5.02a1.205 1.205 0 00.65 1.376c.066.01.13.027.192.053.334.135.71.116 1.028-.055.344-.179.596-.499.692-.879.524-2.336.937-3.868 1.229-4.556.034-.1.076-.202.115-.3.067-.156.123-.316.168-.48a.852.852 0 011.03-.637.863.863 0 01.65.82l.16 6.382v.021a1.294 1.294 0 001.086 1.238zm2.762-25.908c-2.299 0-4.162 1.892-4.161 4.226 0 2.333 1.865 4.224 4.164 4.223 2.298 0 4.16-1.891 4.16-4.223-.003-2.333-1.865-4.223-4.163-4.226zm36.302 27.79c-1.03 0-2.09-.09-2.94-.164a.497.497 0 01-.06-.007c-1.45-.23-2.546-1.495-2.551-2.945l-.02-.742a3.081 3.081 0 01-1.546 1.903 2.915 2.915 0 01-2.281.177.859.859 0 01-.244-.063c-1.374-.579-2.105-1.985-1.779-3.418.568-2.535 1.061-4.313 1.462-5.284.047-.135.103-.256.151-.37.057-.112.103-.23.138-.35a.794.794 0 01.027-.086l.025-.07c.796-2.18 2.45-6.715 6.745-6.715h.47c-2.96-1.341-4.29-4.863-2.968-7.867 1.32-3.005 4.791-4.353 7.751-3.013 2.96 1.341 4.29 4.863 2.968 7.868a5.913 5.913 0 01-2.968 3.012h.478c4.263 0 5.946 4.525 6.756 6.743.128.27.237.55.328.836v.007c.6 1.436 1.23 4.158 1.476 5.278.33 1.381-.432 2.85-1.777 3.42a.866.866 0 01-.244.063 2.92 2.92 0 01-2.288-.178 3.08 3.08 0 01-1.54-1.9l-.018.742c-.006 1.515-1.178 2.843-2.618 2.953-.894.084-1.95.17-2.933.17zm-2.762-1.885c1.026.088 1.884.155 2.762.155.917 0 1.926-.08 2.792-.157.575-.046 1.054-.618 1.054-1.236v-.023l.16-6.382a.858.858 0 01.874-.843c.381.01.71.276.804.652.045.158.1.314.164.466.044.112.09.228.128.342.45 1.16 1.045 3.75 1.218 4.538.094.379.345.699.687.877.32.172.698.192 1.034.055a.835.835 0 01.187-.052c.498-.272.783-.846.658-1.36v-.02c-.487-2.239-1.014-4.113-1.395-5.012a.99.99 0 01-.024-.066l-.014-.04a4.645 4.645 0 00-.258-.657.771.771 0 01-.038-.087c-.72-1.978-2.063-5.656-5.17-5.656h-5.726c-3.11 0-4.386 3.497-5.146 5.585l-.012.032c-.06.207-.137.41-.23.603a2.517 2.517 0 00-.117.285c-.366.854-.842 2.59-1.387 5.02a1.208 1.208 0 00.651 1.377c.065.01.13.027.191.052.334.136.71.116 1.028-.054.345-.179.597-.5.693-.88.524-2.337.937-3.869 1.228-4.556.036-.1.076-.201.116-.3.067-.156.123-.316.168-.479a.852.852 0 011.03-.637.863.863 0 01.651.819l.159 6.382v.022c.023.62.476 1.138 1.08 1.235zm2.762-25.905c-2.299 0-4.162 1.892-4.161 4.226 0 2.333 1.864 4.224 4.163 4.223 2.298 0 4.16-1.891 4.162-4.223-.002-2.333-1.865-4.224-4.164-4.226z"/></g></svg>