<svg width="67" height="68" xmlns="http://www.w3.org/2000/svg" overflow="hidden"><defs><clipPath id="a"><path d="M187 519h67v68h-67z"/></clipPath></defs><g clip-path="url(#a)" transform="translate(-187 -519)"><path d="M203.84 575.83c-3.3.003-5.98-2.704-5.983-6.047-.003-3.342 2.67-6.054 5.972-6.057a5.931 5.931 0 013.652 1.256l5.4-5.325a7.537 7.537 0 01-.122-8.96l-7.45-6.947a4.744 4.744 0 01-6.697-.948c-1.591-2.135-1.172-5.17.936-6.781a4.744 4.744 0 016.698.947 4.89 4.89 0 01.223 5.508l7.449 6.948a7.306 7.306 0 016.338-1.65l2.827-8.531c-2.311-1.284-3.157-4.222-1.889-6.562 1.269-2.34 4.17-3.196 6.482-1.912 2.311 1.284 3.157 4.222 1.889 6.562a4.765 4.765 0 01-4.18 2.508c-.229 0-.457-.017-.684-.05l-2.827 8.531a7.457 7.457 0 012.842 2.39l7.694-4.355c-.861-2.53.467-5.288 2.966-6.16 2.5-.87 5.223.474 6.084 3.004.86 2.53-.468 5.288-2.967 6.16a4.75 4.75 0 01-5.247-1.495l-7.694 4.355a7.563 7.563 0 01.18 5.26l7.938 3.796a5.233 5.233 0 017.337-1.35c2.394 1.678 2.992 5.003 1.334 7.427a5.233 5.233 0 01-7.337 1.351 5.373 5.373 0 01-2.067-5.863L225 559.043c-2.153 3.505-6.706 4.579-10.168 2.399a7.406 7.406 0 01-.76-.55l-5.4 5.324c1.941 2.701 1.352 6.485-1.316 8.45a5.927 5.927 0 01-3.518 1.159zm0-10.372c-2.357 0-4.268 1.934-4.268 4.32 0 2.387 1.911 4.322 4.268 4.322 2.358 0 4.269-1.935 4.269-4.321-.004-2.385-1.913-4.318-4.269-4.321zm30.948-2.683a3.637 3.637 0 00-.342 1.546c-.003 2.006 1.6 3.634 3.581 3.638 1.98.003 3.59-1.62 3.593-3.625.003-2.005-1.6-3.634-3.58-3.637a3.583 3.583 0 00-3.245 2.07zm-20.31-11.485c-2.075 2.38-1.851 6.012.5 8.113a5.63 5.63 0 008.013-.505c2.075-2.38 1.852-6.012-.499-8.113a5.662 5.662 0 00-1.901-1.123l-.053-.016-.054-.02a5.623 5.623 0 00-5.843 1.484.921.921 0 01-.076.094.81.81 0 01-.087.086zm22.454-9.6c-1.693 0-3.066 1.39-3.066 3.103 0 1.714 1.373 3.103 3.066 3.103 1.693 0 3.065-1.39 3.065-3.103-.002-1.713-1.373-3.101-3.065-3.103zm-34.493-4.902c-1.693 0-3.066 1.39-3.066 3.103 0 1.714 1.373 3.103 3.066 3.103 1.691 0 3.063-1.387 3.065-3.1 0-1.714-1.372-3.104-3.065-3.106zm21.995 1.167c1.652.595 3.468-.278 4.056-1.95.588-1.673-.274-3.512-1.926-4.107-1.652-.595-3.468.278-4.056 1.95-.583 1.657.257 3.48 1.885 4.092l.02.007z" fill="#FE5000"/></g></svg>