<svg width="1920" height="876" viewBox="0 0 1920 876" fill="none" xmlns="http://www.w3.org/2000/svg">
<g opacity="0.11" clip-path="url(#clip0_583_1955)">
<circle cx="201.452" cy="201.452" r="200.952" stroke="#130183"/>
<circle cx="201.452" cy="604.357" r="200.952" stroke="#130183"/>
<circle cx="201.452" cy="1006.36" r="200.952" stroke="#130183"/>
<circle cx="2.21365" cy="400.691" r="200.952" stroke="#130183"/>
<circle cx="2.21365" cy="-1.1069" r="200.952" stroke="#130183"/>
<circle cx="2.21365" cy="805.81" r="200.952" stroke="#130183"/>
<circle cx="405.118" cy="400.691" r="200.952" stroke="#130183"/>
<circle cx="405.118" cy="-1.1069" r="200.952" stroke="#130183"/>
<circle cx="405.118" cy="805.81" r="200.952" stroke="#130183"/>
<circle cx="808.023" cy="400.691" r="200.952" stroke="#130183"/>
<circle cx="808.023" cy="-1.1069" r="200.952" stroke="#130183"/>
<circle cx="808.023" cy="805.81" r="200.952" stroke="#130183"/>
<circle cx="1210.93" cy="400.691" r="200.952" stroke="#130183"/>
<circle cx="1210.93" cy="-1.1069" r="200.952" stroke="#130183"/>
<circle cx="1210.93" cy="805.81" r="200.952" stroke="#130183"/>
<circle cx="1611.62" cy="400.691" r="200.952" stroke="#130183"/>
<circle cx="2015.62" cy="400.691" r="200.952" stroke="#130183"/>
<circle cx="1611.62" cy="-1.1069" r="200.952" stroke="#130183"/>
<circle cx="2015.62" cy="-1.10715" r="200.952" stroke="#130183"/>
<circle cx="1611.62" cy="805.81" r="200.952" stroke="#130183"/>
<circle cx="2015.62" cy="805.81" r="200.952" stroke="#130183"/>
<circle cx="604.357" cy="201.452" r="200.952" stroke="#130183"/>
<circle cx="604.357" cy="604.357" r="200.952" stroke="#130183"/>
<circle cx="604.357" cy="1006.36" r="200.952" stroke="#130183"/>
<circle cx="1007.26" cy="201.452" r="200.952" stroke="#130183"/>
<circle cx="1007.26" cy="604.357" r="200.952" stroke="#130183"/>
<circle cx="1007.26" cy="1006.36" r="200.952" stroke="#130183"/>
<circle cx="1410.17" cy="201.452" r="200.952" stroke="#130183"/>
<circle cx="1813.17" cy="201.452" r="200.952" stroke="#130183"/>
<circle cx="1410.17" cy="604.357" r="200.952" stroke="#130183"/>
<circle cx="1410.17" cy="1006.36" r="200.952" stroke="#130183"/>
<circle cx="1813.17" cy="604.358" r="200.952" stroke="#130183"/>
<circle cx="1813.17" cy="1006.36" r="200.952" stroke="#130183"/>
<rect x="203" width="1" height="875" fill="#130183"/>
<rect x="605" width="1" height="875" fill="#130183"/>
<rect x="805" width="1" height="875" fill="#130183"/>
<rect x="1208" width="1" height="875" fill="#130183"/>
<rect x="1813" width="1" height="875" fill="#130183"/>
<rect x="1612" y="1" width="1" height="875" fill="#130183"/>
<rect x="1008" width="1" height="875" fill="#130183"/>
<rect x="1410" width="1" height="875" fill="#130183"/>
<rect y="198" width="1920" height="1" fill="#130183"/>
<rect y="402" width="1920" height="1" fill="#130183"/>
<rect y="603" width="1920" height="1" fill="#130183"/>
</g>
<defs>
<clipPath id="clip0_583_1955">
<rect width="1920" height="876" fill="white"/>
</clipPath>
</defs>
</svg>
